<svg xmlns="http://www.w3.org/2000/svg" width="1306.63" height="863.583" viewBox="0 0 1306.63 863.583">
  <g id="Hero_Design" data-name="Hero Design" transform="translate(-605.818 -230.476)">
    <g id="Polygon_3" data-name="Polygon 3" transform="matrix(0.643, 0.766, -0.766, 0.643, 1121.685, 230.476)" fill="#ec3d58">
      <path d="M 195.6887359619141 225 L 68.31126403808594 225 L 4.616938591003418 114.5000076293945 L 68.31126403808594 4.000007629394531 L 195.6887359619141 4.000007629394531 L 259.383056640625 114.5000076293945 L 195.6887359619141 225 Z" stroke="none"/>
      <path d="M 70.62254333496094 8.000015258789062 L 9.23388671875 114.5000076293945 L 70.62254333496094 221 L 193.3774719238281 221 L 254.76611328125 114.5000076293945 L 193.3774719238281 8.000015258789062 L 70.62254333496094 8.000015258789062 M 66 1.52587890625e-05 L 198 1.52587890625e-05 L 264 114.5000076293945 L 198 229 L 66 229 L 0 114.5000076293945 L 66 1.52587890625e-05 Z" stroke="none" fill="#fff"/>
    </g>
    <g id="Polygon_4" data-name="Polygon 4" transform="matrix(0.643, 0.766, -0.766, 0.643, 951.392, 374.349)" fill="#ec3d58">
      <path d="M 195.6887359619141 225 L 68.31126403808594 225 L 4.616938591003418 114.5000076293945 L 68.31126403808594 4.000007629394531 L 195.6887359619141 4.000007629394531 L 259.383056640625 114.5000076293945 L 195.6887359619141 225 Z" stroke="none"/>
      <path d="M 70.62254333496094 8.000015258789062 L 9.23388671875 114.5000076293945 L 70.62254333496094 221 L 193.3774719238281 221 L 254.76611328125 114.5000076293945 L 193.3774719238281 8.000015258789062 L 70.62254333496094 8.000015258789062 M 66 1.52587890625e-05 L 198 1.52587890625e-05 L 264 114.5000076293945 L 198 229 L 66 229 L 0 114.5000076293945 L 66 1.52587890625e-05 Z" stroke="none" fill="#fff"/>
    </g>
    <g id="Polygon_8" data-name="Polygon 8" transform="matrix(0.643, 0.766, -0.766, 0.643, 986.372, 590.334)" fill="#ec3d58">
      <path d="M 195.6887359619141 225 L 68.31126403808594 225 L 4.616938591003418 114.5000076293945 L 68.31126403808594 4.000007629394531 L 195.6887359619141 4.000007629394531 L 259.383056640625 114.5000076293945 L 195.6887359619141 225 Z" stroke="none"/>
      <path d="M 70.62254333496094 8.000015258789062 L 9.23388671875 114.5000076293945 L 70.62254333496094 221 L 193.3774719238281 221 L 254.76611328125 114.5000076293945 L 193.3774719238281 8.000015258789062 L 70.62254333496094 8.000015258789062 M 66 1.52587890625e-05 L 198 1.52587890625e-05 L 264 114.5000076293945 L 198 229 L 66 229 L 0 114.5000076293945 L 66 1.52587890625e-05 Z" stroke="none" fill="#fff"/>
    </g>
    <g id="Polygon_14" data-name="Polygon 14" transform="matrix(0.643, 0.766, -0.766, 0.643, 1197.003, 666.336)" fill="#16b096">
      <path d="M 195.6887359619141 225 L 68.31126403808594 225 L 4.616938591003418 114.5000076293945 L 68.31126403808594 4.000007629394531 L 195.6887359619141 4.000007629394531 L 259.383056640625 114.5000076293945 L 195.6887359619141 225 Z" stroke="none"/>
      <path d="M 70.62254333496094 8.000015258789062 L 9.23388671875 114.5000076293945 L 70.62254333496094 221 L 193.3774719238281 221 L 254.76611328125 114.5000076293945 L 193.3774719238281 8.000015258789062 L 70.62254333496094 8.000015258789062 M 66 1.52587890625e-05 L 198 1.52587890625e-05 L 264 114.5000076293945 L 198 229 L 66 229 L 0 114.5000076293945 L 66 1.52587890625e-05 Z" stroke="none" fill="#fff"/>
    </g>
    <g id="Polygon_10" data-name="Polygon 10" transform="matrix(0.643, 0.766, -0.766, 0.643, 1403.776, 744.625)" fill="#fcdab7">
      <path d="M 195.6887359619141 225 L 68.31126403808594 225 L 4.616938591003418 114.5000076293945 L 68.31126403808594 4.000007629394531 L 195.6887359619141 4.000007629394531 L 259.383056640625 114.5000076293945 L 195.6887359619141 225 Z" stroke="none"/>
      <path d="M 70.62254333496094 8.000015258789062 L 9.23388671875 114.5000076293945 L 70.62254333496094 221 L 193.3774719238281 221 L 254.76611328125 114.5000076293945 L 193.3774719238281 8.000015258789062 L 70.62254333496094 8.000015258789062 M 66 1.52587890625e-05 L 198 1.52587890625e-05 L 264 114.5000076293945 L 198 229 L 66 229 L 0 114.5000076293945 L 66 1.52587890625e-05 Z" stroke="none" fill="#fff"/>
    </g>
    <g id="Polygon_11" data-name="Polygon 11" transform="matrix(0.643, 0.766, -0.766, 0.643, 1742.752, 315.705)" fill="#16b096">
      <path d="M 195.6887359619141 225 L 68.31126403808594 225 L 4.616938591003418 114.5000076293945 L 68.31126403808594 4.000007629394531 L 195.6887359619141 4.000007629394531 L 259.383056640625 114.5000076293945 L 195.6887359619141 225 Z" stroke="none"/>
      <path d="M 70.62254333496094 8.000015258789062 L 9.23388671875 114.5000076293945 L 70.62254333496094 221 L 193.3774719238281 221 L 254.76611328125 114.5000076293945 L 193.3774719238281 8.000015258789062 L 70.62254333496094 8.000015258789062 M 66 1.52587890625e-05 L 198 1.52587890625e-05 L 264 114.5000076293945 L 198 229 L 66 229 L 0 114.5000076293945 L 66 1.52587890625e-05 Z" stroke="none" fill="#fff"/>
    </g>
    <g id="Polygon_12" data-name="Polygon 12" transform="matrix(0.643, 0.766, -0.766, 0.643, 781.242, 519.823)" fill="#fcdab7">
      <path d="M 195.6887359619141 225 L 68.31126403808594 225 L 4.616938591003418 114.5000076293945 L 68.31126403808594 4.000007629394531 L 195.6887359619141 4.000007629394531 L 259.383056640625 114.5000076293945 L 195.6887359619141 225 Z" stroke="none"/>
      <path d="M 70.62254333496094 8.000015258789062 L 9.23388671875 114.5000076293945 L 70.62254333496094 221 L 193.3774719238281 221 L 254.76611328125 114.5000076293945 L 193.3774719238281 8.000015258789062 L 70.62254333496094 8.000015258789062 M 66 1.52587890625e-05 L 198 1.52587890625e-05 L 264 114.5000076293945 L 198 229 L 66 229 L 0 114.5000076293945 L 66 1.52587890625e-05 Z" stroke="none" fill="#fff"/>
    </g>
    <g id="Polygon_13" data-name="Polygon 13" transform="matrix(0.643, 0.766, -0.766, 0.643, 1366.364, 523.757)" fill="#fcdab7">
      <path d="M 195.6887359619141 225 L 68.31126403808594 225 L 4.616938591003418 114.5000076293945 L 68.31126403808594 4.000007629394531 L 195.6887359619141 4.000007629394531 L 259.383056640625 114.5000076293945 L 195.6887359619141 225 Z" stroke="none"/>
      <path d="M 70.62254333496094 8.000015258789062 L 9.23388671875 114.5000076293945 L 70.62254333496094 221 L 193.3774719238281 221 L 254.76611328125 114.5000076293945 L 193.3774719238281 8.000015258789062 L 70.62254333496094 8.000015258789062 M 66 1.52587890625e-05 L 198 1.52587890625e-05 L 264 114.5000076293945 L 198 229 L 66 229 L 0 114.5000076293945 L 66 1.52587890625e-05 Z" stroke="none" fill="#fff"/>
    </g>
  </g>
</svg>
